<svg width="650" height="424" xmlns="http://www.w3.org/2000/svg">
 <!-- Created with SVG Editor - http://github.com/mzalive/SVG Editor/ -->
 <g>
  <title>background</title>
  <rect fill="#0d1117" id="canvas_background" height="426" width="652" y="-1" x="-1"/>
  <g display="none" overflow="visible" y="0" x="0" height="100%" width="100%" id="canvasGrid">
   <rect fill="url(#gridpattern)" stroke-width="0" y="0" x="0" height="100%" width="100%"/>
  </g>
 </g>
 <g>
  <title>Layer 1</title>
  <path stroke="#c9d1d9" id="svg_3" d="m307.5,46c-34,10 -67,53 -68,95c-1,42 22,94 51,108c29,14 62,20 100,13c38,-7 66,-43 64,-86c-2,-43 -13,-84 -46,-106c-33,-22 -67,-34 -101,-24z" stroke-width="3" fill="none"/>
  <ellipse stroke="#c9d1d9" transform="rotate(30.33480453491211 272.8589782714843,131.2863311767578) " ry="20.579288" rx="16.62849" id="svg_4" cy="131.286328" cx="272.858972" stroke-width="3" fill="none"/>
  <path id="svg_7" d="m360.49306,81.2344c-2.96295,1.97531 -6.41974,6.66665 -5.679,16.54318c0.74074,9.87652 1.23456,10.86416 7.6543,15.80243c6.41974,4.93826 12.09874,7.90122 20.7407,1.9753c8.64196,-5.92591 10.12343,-11.85182 8.88887,-19.50613c-1.23456,-7.6543 -3.20987,-5.679 -14.32096,-14.07404c-11.11109,-8.39504 -14.32096,-2.71605 -17.28391,-0.74074z" stroke-width="3" stroke="#c9d1d9" fill="none"/>
  <path id="svg_10" d="m302.99143,166.23941c0.780389,2.69416 0.798955,9.773315 4.70086,11.53847c3.901905,1.765155 44.44447,-10.68376 57.26499,-16.66667" stroke-width="3" stroke="#c9d1d9" fill="none"/>
  <path id="svg_12" d="m535.04285,150.427438" opacity="0.5" stroke-width="3" stroke="#c9d1d9" fill="none"/>
  <line stroke="#c9d1d9" stroke-linecap="null" stroke-linejoin="null" id="svg_9" y2="173.931724" x2="369.230795" y1="146.581282" x1="359.829075" stroke-width="3" fill="none"/>
  <path id="svg_14" d="m240.20613,423.25323c-0.219601,-18.556298 -0.51546,-25.97606 -1.03092,-34.73895c-0.51547,-8.76289 4.12371,-52.57735 3.09278,-65.97942c-1.03093,-13.40207 -2.06186,-40.72167 -4.63917,-54.12374c-2.57732,-13.40207 -3.518268,-27.364386 -4.63899,-30.26665c-1.120722,-2.902264 0.51527,52.94707 1.03073,67.38007c0.51546,14.433 -4.63917,45.36086 -8.76288,53.60828c-4.12371,8.24742 -19.58765,38.14435 -41.75261,39.69075c-22.16497,1.5464 -57.21653,-2.57732 -70.6186,-19.07218c-13.40207,-16.49485 -29.89693,-55.15468 -28.866,-63.91757c1.03094,-8.76288 41.75261,-31.95878 47.42272,-33.50517c5.6701,-1.5464 11.34021,20.10311 14.43299,27.83507c3.09279,7.73196 13.40207,21.6495 23.19589,21.6495c9.79382,0 9.79382,-3.09279 9.27836,-11.34022c-0.51547,-8.24742 -12.88661,-74.22684 -10.82475,-91.23716c2.06186,-17.01032 -1.54639,-48.45364 9.27836,-56.1856c10.82474,-7.73197 31.95878,-15.46393 41.23713,-9.27836c9.27836,6.18557 28.866,22.68043 28.35073,22.3107" stroke-width="3" stroke="#c9d1d9" fill="none"/>
  <path id="svg_15" d="m129.381327,282.844116c-4.639178,-17.010319 -5.154642,-26.288675 -10.309285,-33.505175c-5.154642,-7.216499 -10.309285,-17.525784 -21.649497,-15.979391c-11.340213,1.546393 -8.762892,6.185571 -12.886606,13.40207c-4.123714,7.216499 -6.701035,5.670106 -12.371141,11.855677c-5.670106,6.185571 -2.061857,6.701035 -9.278356,10.824749c-7.216499,4.123714 -16.494855,6.701035 -19.587641,7.731963c-3.092785,1.030928 -5.670106,9.79382 -9.278356,16.494855c-3.60825,6.701035 -10.824749,12.371141 -13.40207,17.010319c-2.577321,4.639178 -4.639178,11.855677 -2.061857,13.40207c2.577321,1.546393 7.731963,-1.030928 12.371141,-3.60825c4.639178,-2.577321 10.309285,-5.154642 17.010319,-7.216499c6.701035,-2.061857 12.371141,-6.185571 19.072176,-3.60825c6.701035,2.577321 15.463927,-1.546393 17.010319,-3.60825c1.546393,-2.061857 5.154642,13.40207 5.154642,13.40207" stroke-width="3" stroke="#c9d1d9" fill="none"/>
  <path id="svg_16" d="m66.494691,266.864725c2.64479,1.759326 27.835068,-10.309284 27.319797,-10.679008c2.969259,-2.493262 3.641791,5.247135 7.216499,8.762892" stroke-width="3" stroke="#c9d1d9" fill="none"/>
  <path id="svg_18" d="m55.154478,271.503903c2.406557,4.558013 2.815555,5.294843 6.185764,9.424097" stroke-width="3" stroke="#c9d1d9" fill="none"/>
  <path id="svg_19" d="m30.92766,298.308043c4.639178,-0.515464 11.855677,-4.639178 18.556712,-4.639178c6.701035,0 18.181448,-1.661292 21.134033,-3.092785c2.952585,-1.431493 0.817996,-2.381256 -0.515271,-3.977974" stroke-width="3" stroke="#c9d1d9" fill="none"/>
  <path id="svg_20" d="m48.732772,313.622224c0.365718,0.429074 -4.403043,8.397173 -6.980364,10.45903c-2.577321,2.061857 -6.701035,4.123714 -9.278356,1.546393c-2.577321,-2.577321 -1.81219,-4.687702 -2.676456,-4.375839c-0.864266,0.311863 6.941575,-4.036399 9.882488,-5.060673c2.940913,-1.024274 8.68697,-2.997986 9.052688,-2.568911z" stroke-width="3" stroke="#c9d1d9" fill="none"/>
  <path id="svg_21" d="m511.855782,424.081314c-1.030929,-61.340243 -2.061857,-161.855767 0.515464,-172.165051c2.577321,-10.309285 5.154642,-6.701035 3.092785,-11.340213c-2.061857,-4.639178 -9.278356,-4.639178 -12.371141,-16.494855c-3.092786,-11.855677 -12.371142,-30.41239 -12.886417,-30.782112c0.515275,0.369722 15.463738,37.483147 17.525595,39.029539c2.061857,1.546393 17.525783,15.463927 19.58764,18.556712c2.061857,3.092786 5.154643,22.680426 28.865997,25.773212c23.711354,3.092785 33.505175,8.762892 47.422709,-5.154643c13.917534,-13.917534 19.072176,-51.546422 18.041248,-71.649527c-1.030929,-20.103105 -21.510658,-76.239955 -22.680426,-78.866026c-1.169768,-2.626071 -6.440714,-6.896951 -6.758449,-12.312539c-0.317735,-5.415588 21.190347,-7.87128 24.28442,-7.644824c3.094073,0.226456 16.494667,6.555293 18.04106,6.555293c1.546393,0 3.60825,-7.731963 -1.546393,-12.886606c-5.154642,-5.154642 -18.041247,-10.824748 -21.134033,-12.371141c-3.092785,-1.546393 -8.762892,-2.577321 -15.979391,-2.061857c-7.216499,0.515464 -17.209712,7.302164 -19.072176,7.216499c-1.862464,-0.085665 -9.477371,-5.292957 -10.82456,-4.493436c-1.347189,0.799521 -14.145178,10.962589 -17.66905,16.180259" stroke-width="3" stroke="#c9d1d9" fill="none"/>
  <path id="svg_22" d="m548.453742,98.823388c-3.092786,5.154642 -5.670107,13.917534 2.577321,27.319604c8.247427,13.40207 13.40207,30.927853 14.432998,38.659817c1.030928,7.731963 5.670106,39.690745 3.60825,46.39178c-2.061857,6.701035 -5.670107,8.247428 -6.185571,9.278356c-0.515464,1.030929 -11.340213,-10.824749 -14.432998,-22.164962c-3.092786,-11.340212 -8.247428,-38.659816 -11.855678,-47.938172c-3.608249,-9.278356 -16.494855,-37.113425 -21.134033,-42.268067c-4.639178,-5.154642 -15.979391,-19.58764 -22.164962,-21.649497c-6.18557,-2.061857 -30.927853,-0.515465 -35.051567,3.608249c-4.123714,4.123714 -8.69222,21.046158 -11.883074,33.050988" stroke-width="3" stroke="#c9d1d9" fill="none"/>
  <path id="svg_23" d="m555.670241,131.813098c7.216499,-5.154642 18.041248,-11.340212 21.649497,-13.402069c3.60825,-2.061857 16.00893,-2.577322 19.101715,-1.030929" opacity="NaN" stroke-width="3" stroke="#c9d1d9" fill="none"/>
  <path stroke="#c9d1d9" id="svg_24" d="m622.367471,86.307505c-8.784466,8.37535 -25.565129,4.808882 -28.919981,7.213324c-3.354853,2.40444 -14.537694,-6.411842 -15.096632,-6.986712" stroke-width="3" fill="none"/>
  <path id="svg_25" d="m564.433133,113.771851c4.639178,-13.40207 3.608249,-13.40207 5.670106,-16.494856c2.061857,-3.092785 2.719489,0.148218 5.670295,0.661207c2.950806,0.512988 9.535162,-2.980058 10.309284,-4.639178" stroke-width="3" stroke="#c9d1d9" fill="none"/>
  <path id="svg_26" d="m370.10312,68.926463c-3.60825,-2.061857 -8.762892,-4.123714 -9.793821,-4.123714c-1.030928,0 -9.959338,6.323503 -16.494664,10.970491" stroke-width="3" stroke="#c9d1d9" fill="none"/>
  <path id="svg_27" d="m281.443273,97.276995c-0.515464,0 -5.154642,-1.546392 -7.731963,-2.061857c-2.577322,-0.515464 -9.862787,8.873238 -12.886415,11.680766" stroke-width="3" stroke="#c9d1d9" fill="none"/>
  <ellipse ry="2.577321" rx="2.577321" id="svg_28" cy="133.874955" cx="272.164917" stroke-width="3" stroke="#c9d1d9" fill="#c9d1d9"/>
  <ellipse ry="4.381446" rx="5.154642" id="svg_29" cy="94.441942" cx="378.350547" stroke-width="3" stroke="#c9d1d9" fill="#c9d1d9"/>
 </g>
</svg>
